<svg width="36" height="36" fill="none" xmlns="http://www.w3.org/2000/svg"><path d="M18 27c-2.5 0-4.625-.875-6.375-2.625S9 20.5 9 18s.875-4.625 2.625-6.375S15.5 9 18 9s4.625.875 6.375 2.625S27 15.5 27 18s-.875 4.625-2.625 6.375S20.5 27 18 27Zm-1.125-3.113V20.7l-2.25 2.25c.35.225.706.419 1.069.581.362.163.756.282 1.181.357Zm2.25 0c.4-.075.788-.193 1.163-.356a7.578 7.578 0 0 0 1.087-.581l-2.25-2.25v3.188Zm3.825-2.512c.225-.35.419-.712.581-1.087.163-.375.282-.763.357-1.163H20.7l2.25 2.25Zm-2.25-4.5h3.188a5.428 5.428 0 0 0-.357-1.162 7.578 7.578 0 0 0-.581-1.088l-2.25 2.25ZM19.125 15.3l2.25-2.25a8.114 8.114 0 0 0-1.069-.581 5 5 0 0 0-1.181-.356V15.3ZM18 19.5c.425 0 .781-.144 1.069-.431.287-.288.431-.644.431-1.069 0-.425-.144-.781-.431-1.069A1.452 1.452 0 0 0 18 16.5c-.425 0-.781.144-1.069.431A1.451 1.451 0 0 0 16.5 18c0 .425.144.781.431 1.069.288.287.644.431 1.069.431Zm-1.125-4.2v-3.188c-.4.075-.788.194-1.162.357a7.588 7.588 0 0 0-1.088.581l2.25 2.25Zm-4.762 1.575H15.3l-2.25-2.25c-.225.35-.419.713-.581 1.088a5.433 5.433 0 0 0-.356 1.162Zm.937 4.5 2.25-2.25h-3.188c.075.4.194.788.357 1.163.162.375.356.737.581 1.087ZM7.5 31.5a2.889 2.889 0 0 1-2.119-.881A2.889 2.889 0 0 1 4.5 28.5v-21c0-.825.294-1.531.881-2.119A2.889 2.889 0 0 1 7.5 4.5h21c.825 0 1.531.294 2.119.881.587.588.881 1.294.881 2.119v21c0 .825-.294 1.531-.881 2.119a2.889 2.889 0 0 1-2.119.881h-21Zm0-3h21v-21h-21v21Z" fill="#B9B9B9"/></svg>