<svg width="36" height="36" fill="none" xmlns="http://www.w3.org/2000/svg"><path d="m29.5 7 4 6.5c0 .825-.413 10.413-1 11-.587.587-10.675 6.5-11.5 6.5H3a2.889 2.889 0 0 1-2.119-.881A2.889 2.889 0 0 1 0 28V7c0-.825.294-1.531.881-2.119A2.889 2.889 0 0 1 3 4h18l8.5 3Zm-1 1L24 6l-9 1H3v21h15l4.964 2.119L31.5 24l1.97-9.5L28.5 8ZM3 11.275V28 7v4.275Z" fill="#B9B9B9"/><path d="M21.5 23.575c1.688 0 3.122-.59 4.303-1.772 1.181-1.181 1.772-2.616 1.772-4.303 0-1.688-.59-3.122-1.772-4.303-1.181-1.181-2.616-1.772-4.303-1.772-1.688 0-3.122.59-4.303 1.772-1.181 1.181-1.772 2.616-1.772 4.303 0 1.688.59 3.122 1.772 4.303 1.181 1.181 2.616 1.772 4.303 1.772Zm0-4.725c-.383 0-.703-.13-.962-.388a1.307 1.307 0 0 1-.388-.962c0-.383.13-.703.388-.962.259-.259.58-.388.962-.388.383 0 .703.13.962.388.259.259.388.58.388.962 0 .383-.13.703-.388.962-.259.259-.58.388-.962.388Zm0 12.15c-1.867 0-3.622-.354-5.265-1.063a13.634 13.634 0 0 1-4.286-2.886 13.633 13.633 0 0 1-2.886-4.286C8.354 21.122 8 19.367 8 17.5c0-1.867.354-3.623 1.063-5.265a13.633 13.633 0 0 1 2.886-4.286 13.633 13.633 0 0 1 4.286-2.886C17.878 4.354 19.633 4 21.5 4c1.867 0 3.622.354 5.265 1.063a13.633 13.633 0 0 1 4.286 2.886 13.634 13.634 0 0 1 2.886 4.286C34.646 13.878 35 15.633 35 17.5c0 1.867-.354 3.622-1.063 5.265a13.634 13.634 0 0 1-2.886 4.286 13.634 13.634 0 0 1-4.286 2.886C25.122 30.646 23.367 31 21.5 31Zm0-2.7c3.015 0 5.569-1.046 7.661-3.139C31.254 23.07 32.3 20.515 32.3 17.5c0-3.015-1.046-5.569-3.139-7.661C27.07 7.746 24.515 6.7 21.5 6.7c-3.015 0-5.569 1.046-7.661 3.139C11.746 11.93 10.7 14.485 10.7 17.5c0 3.015 1.046 5.569 3.139 7.661C15.93 27.254 18.485 28.3 21.5 28.3Z" fill="#B9B9B9"/></svg>