<svg width="36" height="36" fill="none" xmlns="http://www.w3.org/2000/svg"><path d="m25.5 33-.45-2.25c-.3-.125-.581-.256-.844-.394a6.53 6.53 0 0 1-.806-.506l-2.175.675-1.5-2.55 1.725-1.5a5.94 5.94 0 0 1-.075-.975c0-.35.025-.675.075-.975l-1.725-1.5 1.5-2.55 2.175.675c.275-.2.544-.369.806-.506.263-.138.544-.269.844-.394L25.5 18h3l.45 2.25c.3.125.581.256.844.394.262.137.531.306.806.506l2.175-.675 1.5 2.55-1.725 1.5c.05.3.075.625.075.975s-.025.675-.075.975l1.725 1.5-1.5 2.55-2.175-.675c-.275.2-.544.369-.806.506a10.63 10.63 0 0 1-.844.394L28.5 33h-3Zm1.5-4.5c.825 0 1.531-.294 2.119-.881A2.889 2.889 0 0 0 30 25.5c0-.825-.294-1.531-.881-2.119A2.889 2.889 0 0 0 27 22.5c-.825 0-1.531.294-2.119.881A2.889 2.889 0 0 0 24 25.5c0 .825.294 1.531.881 2.119A2.889 2.889 0 0 0 27 28.5ZM6 27V9v6.45V15v12Zm0 3a2.889 2.889 0 0 1-2.119-.881A2.89 2.89 0 0 1 3 27V9c0-.825.294-1.531.881-2.119A2.889 2.889 0 0 1 6 6h9l3 3h12c.825 0 1.531.294 2.119.881.587.588.881 1.294.881 2.119v4.913a9.09 9.09 0 0 0-1.425-.844c-.5-.238-1.025-.444-1.575-.619V12H16.762l-3-3H6v18h10.613c.075.525.193 1.038.356 1.538.162.5.356.987.581 1.462H6Z" fill="#B9B9B9"/></svg>