<svg width="36" height="36" fill="none" xmlns="http://www.w3.org/2000/svg"><path d="M16.5 25.5h3l.45-2.25c.3-.125.581-.256.844-.394.262-.137.531-.306.806-.506l2.175.675 1.5-2.55-1.725-1.5c.05-.35.075-.675.075-.975 0-.3-.025-.625-.075-.975l1.725-1.5-1.5-2.55-2.175.675a6.515 6.515 0 0 0-.806-.506 10.647 10.647 0 0 0-.844-.394l-.45-2.25h-3l-.45 2.25c-.3.125-.581.256-.844.394a6.516 6.516 0 0 0-.806.506l-2.175-.675-1.5 2.55 1.725 1.5c-.05.35-.075.675-.075.975 0 .3.025.625.075.975l-1.725 1.5 1.5 2.55 2.175-.675c.275.2.544.369.806.506.263.138.544.269.844.394l.45 2.25ZM18 21a2.889 2.889 0 0 1-2.119-.881A2.889 2.889 0 0 1 15 18c0-.825.294-1.531.881-2.119A2.889 2.889 0 0 1 18 15c.825 0 1.531.294 2.119.881.587.588.881 1.294.881 2.119 0 .825-.294 1.531-.881 2.119A2.889 2.889 0 0 1 18 21ZM7.5 31.5a2.889 2.889 0 0 1-2.119-.881A2.889 2.889 0 0 1 4.5 28.5v-21c0-.825.294-1.531.881-2.119A2.889 2.889 0 0 1 7.5 4.5h21c.825 0 1.531.294 2.119.881.587.588.881 1.294.881 2.119v21c0 .825-.294 1.531-.881 2.119a2.889 2.889 0 0 1-2.119.881h-21Zm0-3h21v-21h-21v21Z" fill="#B9B9B9"/></svg>